<svg width="17" height="17" viewBox="0 0 17 17" fill="none" xmlns="http://www.w3.org/2000/svg">
<path fill-rule="evenodd" clip-rule="evenodd" d="M8.0268 1.49414C4.1549 1.49414 1.01611 4.63293 1.01611 8.50482C1.01611 12.3767 4.1549 15.5155 8.0268 15.5155C11.8987 15.5155 15.0375 12.3767 15.0375 8.50482C15.0375 4.63293 11.8987 1.49414 8.0268 1.49414ZM0.0161133 8.50482C0.0161133 4.08065 3.60262 0.494141 8.0268 0.494141C12.451 0.494141 16.0375 4.08065 16.0375 8.50482C16.0375 12.929 12.451 16.5155 8.0268 16.5155C3.60262 16.5155 0.0161133 12.929 0.0161133 8.50482Z" fill="#000028"/>
<path d="M8.85303 8.61308V3.28064H7.85303V9.04915L10.7557 11.7445L11.4362 11.0117L8.85303 8.61308Z" fill="#000028"/>
</svg>
