<svg width="49" height="49" viewBox="0 0 49 49" fill="none" xmlns="http://www.w3.org/2000/svg">
<path fill-rule="evenodd" clip-rule="evenodd" d="M26.107 3.83822C28.6053 3.59335 31.112 4.26278 33.1869 5.73626C35.1656 7.1414 36.6217 9.18517 37.34 11.5306C38.5435 11.5282 39.7407 11.737 40.88 12.1501C42.2904 12.6615 43.5798 13.474 44.6648 14.5337C45.7498 15.5934 46.6063 16.8764 47.1799 18.2988C47.752 19.7175 48.0303 21.244 47.9974 22.7799C47.9909 28.6794 43.1922 33.9713 37.5673 33.9713H29.9606V31.8966H37.5673C41.9473 31.8966 45.9537 27.6521 45.9537 22.768V22.7561L45.9539 22.7443C45.9822 21.489 45.7553 20.2421 45.2886 19.0848C44.8219 17.9276 44.1262 16.8866 43.2479 16.0289C42.3697 15.1711 41.3285 14.5157 40.1926 14.1039C39.0568 13.6921 37.8508 13.5327 36.6525 13.6356L35.7674 13.7117L35.5701 12.8325C35.076 10.6314 33.8055 8.70747 32.0155 7.43628C30.2261 6.16555 28.0457 5.63757 25.9032 5.95229L25.4074 6.02513L25.047 5.67181C21.6458 2.33724 17.4389 1.84344 13.8894 3.46025C10.3176 5.0872 7.30881 8.90825 6.5511 14.4055L6.48974 14.8506L6.12787 15.1096C2.32521 17.8309 1.41917 22.0729 2.41907 25.6766C3.43017 29.3205 6.31186 32.1041 9.94298 32.1041H15.9483V34.1788H9.94298C5.1667 34.1788 1.64276 30.5308 0.451916 26.2391C-0.718329 22.0216 0.289261 16.9835 4.59238 13.6793C5.53469 7.78307 8.87067 3.47232 13.0528 1.56737C17.2322 -0.336391 22.1591 0.216465 26.107 3.83822Z" fill="#464646"/>
<path fill-rule="evenodd" clip-rule="evenodd" d="M22.9542 17.3738C23.2289 17.3738 23.492 17.486 23.6842 17.6852L31.6913 25.984L30.2313 27.4357L22.9542 19.8936L15.6772 27.4357L14.2172 25.984L22.2242 17.6852C22.4164 17.486 22.6795 17.3738 22.9542 17.3738Z" fill="#464646"/>
<path fill-rule="evenodd" clip-rule="evenodd" d="M23.9763 19.4485V48.4941H21.9325V19.4485H23.9763Z" fill="#464646"/>
</svg>
