<svg width="64" height="64" viewBox="0 0 64 64" fill="none" xmlns="http://www.w3.org/2000/svg">
<rect y="8" width="56" height="56" fill="#009999"/>
<g clip-path="url(#clip0_1475_429)">
<rect width="56" height="56" transform="translate(8)" fill="white"/>
<path d="M8 0H64V56H8V0Z" fill="#2D373C"/>
<path d="M25.9564 38.5H18.7639L17.3971 42.6055H13.0361L20.4456 22.6992H24.2466L31.6981 42.6055H27.3371L25.9564 38.5ZM19.8716 35.175H24.8486L22.3496 27.7305L19.8716 35.175Z" fill="white"/>
<path d="M41.8696 42.6056C41.6686 42.187 41.5352 41.7393 41.4741 41.2791C41.0079 41.8013 40.4328 42.2149 39.7893 42.4907C39.1459 42.7665 38.4498 42.8977 37.7501 42.8751C36.4341 42.9231 35.1483 42.4739 34.1486 41.6168C33.6892 41.2281 33.3224 40.7416 33.075 40.193C32.8277 39.6444 32.706 39.0475 32.7188 38.4458C32.6847 37.7456 32.8271 37.0481 33.1329 36.4173C33.4387 35.7864 33.898 35.2426 34.4688 34.8356C35.9771 33.9029 37.7368 33.4592 39.5071 33.5651H41.3253V32.7251C41.3561 32.1328 41.1694 31.5496 40.8003 31.0853C40.5866 30.8658 40.3267 30.6966 40.0394 30.59C39.7521 30.4835 39.4448 30.4422 39.1396 30.4693C38.5774 30.4358 38.0219 30.606 37.5751 30.9488C37.3865 31.1097 37.2372 31.3117 37.1386 31.5391C37.04 31.7666 36.9948 32.0137 37.0063 32.2613H33.0391C33.0384 31.403 33.3166 30.5678 33.8318 29.8813C34.4081 29.1153 35.1835 28.5221 36.0736 28.1663C37.1042 27.7393 38.2114 27.5279 39.3268 27.5451C40.8924 27.4617 42.4352 27.9492 43.6686 28.9171C44.2102 29.3985 44.636 29.9961 44.9141 30.6652C45.1923 31.3343 45.3157 32.0576 45.2751 32.7811V39.1931C45.2216 40.2859 45.4229 41.3763 45.8631 42.3781V42.6108L41.8696 42.6056ZM38.6023 39.8563C39.1639 39.8616 39.7181 39.7281 40.2158 39.4678C40.6775 39.2355 41.0587 38.8697 41.3096 38.4178V35.8751H39.8326C37.8562 35.8751 36.8062 36.5587 36.6826 37.9261L36.6686 38.1588C36.6612 38.389 36.7044 38.6179 36.7951 38.8296C36.8858 39.0412 37.0218 39.2304 37.1936 39.3838C37.5857 39.7152 38.0897 39.8843 38.6023 39.8563Z" fill="white"/>
<path d="M22.0149 14.5947H18.5709V18.1525H16.7754V9.44971H22.4454V10.904H18.5709V13.1457H22.0149V14.5947Z" fill="#ABBDCA"/>
<path d="M27.2508 16.3587H24.1008L23.5023 18.1525H21.6035L24.8463 9.44971H26.5088L29.769 18.1595H27.8615L27.2508 16.3587ZM24.589 14.9062H26.7678L25.6758 11.6442L24.589 14.9062Z" fill="#ABBDCA"/>
<path d="M32.9282 9.44971L35.1647 15.7672L37.3907 9.44971H39.7479V18.1595H37.9472V15.7725L38.1222 11.6617L35.7719 18.1525H34.5469L32.2019 11.6775L32.3769 15.7812V18.1612H30.5762V9.44971H32.9282Z" fill="#ABBDCA"/>
</g>
<defs>
<clipPath id="clip0_1475_429">
<rect width="56" height="56" fill="white" transform="translate(8)"/>
</clipPath>
</defs>
</svg>
